<svg width="332" height="37" viewBox="0 0 332 37" fill="none" xmlns="http://www.w3.org/2000/svg">
<path d="M12.8438 0.1875C14.4062 0.1875 16 0.265625 17.625 0.421875C19.2656 0.5625 20.8594 0.820312 22.4062 1.19531C23.9531 1.55469 25.4062 2.0625 26.7656 2.71875C28.125 3.35938 29.3125 4.17969 30.3281 5.17969C31.3594 6.16406 32.1719 7.35156 32.7656 8.74219C33.3594 10.1172 33.6562 11.7344 33.6562 13.5938C33.6562 15.4844 33.3984 17.1484 32.8828 18.5859C32.3828 20.0234 31.6719 21.2734 30.75 22.3359C29.8438 23.3984 28.7578 24.2891 27.4922 25.0078C26.2422 25.7109 24.8672 26.2812 23.3672 26.7188C21.8672 27.1406 20.2734 27.4453 18.5859 27.6328C16.8984 27.8047 15.1719 27.8906 13.4062 27.8906C12.2969 27.8906 11.1953 27.8594 10.1016 27.7969C9.00781 27.7344 7.90625 27.6562 6.79688 27.5625V35.9531H0.984375V1.54688C1.32812 1.4375 1.875 1.30469 2.625 1.14844C3.39062 0.992188 4.28906 0.84375 5.32031 0.703125C6.36719 0.5625 7.53125 0.445312 8.8125 0.351562C10.0938 0.242188 11.4375 0.1875 12.8438 0.1875ZM14.5312 5.34375C13.5 5.34375 12.5156 5.39062 11.5781 5.48438C10.6406 5.5625 9.82031 5.65625 9.11719 5.76562C8.27344 5.89062 7.5 6.03125 6.79688 6.1875V22.2188C7.29688 22.3281 7.85156 22.4219 8.46094 22.5C8.97656 22.5781 9.57812 22.6484 10.2656 22.7109C10.9531 22.7578 11.6875 22.7812 12.4688 22.7812C13.4844 22.7812 14.5547 22.7578 15.6797 22.7109C16.8203 22.6484 17.9453 22.5156 19.0547 22.3125C20.1797 22.1094 21.2422 21.8125 22.2422 21.4219C23.2578 21.0156 24.1484 20.4844 24.9141 19.8281C25.6953 19.1562 26.3125 18.3281 26.7656 17.3438C27.2344 16.3594 27.4688 15.1719 27.4688 13.7812C27.4688 12.625 27.2812 11.6094 26.9062 10.7344C26.5312 9.85938 26.0234 9.10938 25.3828 8.48438C24.7422 7.85938 23.9922 7.34375 23.1328 6.9375C22.2891 6.53125 21.3828 6.21094 20.4141 5.97656C19.4609 5.74219 18.4766 5.57812 17.4609 5.48438C16.4609 5.39062 15.4844 5.34375 14.5312 5.34375ZM53.3438 8.85938C54.6562 8.85938 55.9609 8.92188 57.2578 9.04688C58.5703 9.17188 59.8281 9.375 61.0312 9.65625C62.2344 9.9375 63.3594 10.2891 64.4062 10.7109C65.4531 11.1328 66.3594 11.6406 67.125 12.2344C67.9062 12.8281 68.5156 13.5156 68.9531 14.2969C69.3906 15.0625 69.6094 15.9219 69.6094 16.875V29.0156C69.6094 29.8594 69.3906 30.6328 68.9531 31.3359C68.5156 32.0391 67.9062 32.6719 67.125 33.2344C66.3594 33.7812 65.4531 34.2578 64.4062 34.6641C63.3594 35.0703 62.2344 35.4062 61.0312 35.6719C59.8281 35.9375 58.5703 36.1328 57.2578 36.2578C55.9453 36.3984 54.6406 36.4688 53.3438 36.4688C52.0469 36.4688 50.7422 36.3984 49.4297 36.2578C48.1328 36.1328 46.8828 35.9375 45.6797 35.6719C44.4766 35.4062 43.3516 35.0703 42.3047 34.6641C41.2734 34.2578 40.3672 33.7812 39.5859 33.2344C38.8203 32.6719 38.2188 32.0469 37.7812 31.3594C37.3438 30.6562 37.125 29.875 37.125 29.0156V16.875C37.125 15.9219 37.3438 15.0625 37.7812 14.2969C38.2188 13.5156 38.8203 12.8281 39.5859 12.2344C40.3672 11.6406 41.2734 11.1328 42.3047 10.7109C43.3516 10.2891 44.4766 9.9375 45.6797 9.65625C46.8828 9.375 48.1328 9.17188 49.4297 9.04688C50.7422 8.92188 52.0469 8.85938 53.3438 8.85938ZM43.0781 27.5156C43.0781 28.2344 43.375 28.8594 43.9688 29.3906C44.5781 29.9062 45.3672 30.3438 46.3359 30.7031C47.3047 31.0469 48.3984 31.3047 49.6172 31.4766C50.8516 31.6484 52.0938 31.7344 53.3438 31.7344C54.6562 31.7344 55.9219 31.6406 57.1406 31.4531C58.375 31.2656 59.4688 31 60.4219 30.6562C61.375 30.2969 62.1328 29.8594 62.6953 29.3438C63.2734 28.8125 63.5625 28.2031 63.5625 27.5156V17.7656C63.5625 17.0938 63.2734 16.4922 62.6953 15.9609C62.1328 15.4141 61.375 14.9609 60.4219 14.6016C59.4688 14.2266 58.375 13.9453 57.1406 13.7578C55.9219 13.5547 54.6562 13.4531 53.3438 13.4531C52.0938 13.4531 50.8516 13.5469 49.6172 13.7344C48.3984 13.9062 47.3047 14.1719 46.3359 14.5312C45.3672 14.8906 44.5781 15.3438 43.9688 15.8906C43.375 16.4219 43.0781 17.0469 43.0781 17.7656V27.5156ZM82.0781 36H76.125V9.28125H82.0781V36ZM79.125 0C80.2812 0 81.1953 0.195312 81.8672 0.585938C82.5391 0.960938 82.875 1.5625 82.875 2.39062V3.5625C82.875 4.3125 82.5391 4.85156 81.8672 5.17969C81.1953 5.50781 80.2812 5.67188 79.125 5.67188C78.0156 5.67188 77.1172 5.50781 76.4297 5.17969C75.7578 4.85156 75.4219 4.3125 75.4219 3.5625V2.39062C75.4219 1.5625 75.7578 0.960938 76.4297 0.585938C77.1172 0.195312 78.0156 0 79.125 0ZM91.8281 16.6406C91.7656 16.1406 91.6172 15.7188 91.3828 15.375C91.1641 15.0312 90.9219 14.75 90.6562 14.5312C90.3594 14.2656 90.0312 14.0469 89.6719 13.875L92.2969 9.28125C92.875 9.48438 93.4531 9.75781 94.0312 10.1016C94.5156 10.3984 95.0234 10.7812 95.5547 11.25C96.1016 11.7031 96.5781 12.2656 96.9844 12.9375C97.7656 12.4375 98.5625 11.9688 99.375 11.5312C100.203 11.0781 101.062 10.6875 101.953 10.3594C102.859 10.0312 103.805 9.77344 104.789 9.58594C105.789 9.38281 106.859 9.28125 108 9.28125C110.406 9.28125 112.469 9.48438 114.188 9.89062C115.922 10.2812 117.336 10.875 118.43 11.6719C119.539 12.4531 120.352 13.4297 120.867 14.6016C121.383 15.7734 121.641 17.1406 121.641 18.7031V36H115.5V20.1562C115.5 19.2812 115.383 18.5312 115.148 17.9062C114.914 17.2656 114.594 16.7266 114.188 16.2891C113.797 15.8359 113.336 15.4688 112.805 15.1875C112.273 14.9062 111.719 14.6953 111.141 14.5547C110.578 14.3984 110 14.2969 109.406 14.25C108.812 14.1875 108.25 14.1562 107.719 14.1562C106.719 14.1562 105.766 14.2266 104.859 14.3672C103.953 14.5078 103.094 14.7031 102.281 14.9531C101.469 15.1875 100.703 15.4688 99.9844 15.7969C99.2656 16.125 98.5938 16.4688 97.9688 16.8281V36H91.8281V16.6406ZM136.688 8.95312H142.641V12.8906H136.688V36H131.109V12.8906H126.703V8.95312H131.109V0.796875H136.688V8.95312Z" fill="#20DAD8"/>
<path d="M163.688 0.328125C166.094 0.328125 168.633 0.414062 171.305 0.585938C173.992 0.757812 176.812 1.09375 179.766 1.59375V7.54688C178.453 7.17188 177.125 6.86719 175.781 6.63281C174.438 6.38281 173.086 6.1875 171.727 6.04688C170.383 5.90625 169.039 5.80469 167.695 5.74219C166.352 5.67969 165.016 5.64062 163.688 5.625C163.047 5.625 162.336 5.64062 161.555 5.67188C160.789 5.6875 159.961 5.71875 159.07 5.76562C158.195 5.8125 157.281 5.88281 156.328 5.97656C155.375 6.07031 154.406 6.1875 153.422 6.32812V14.8594H173.906V20.625H153.422V36H147.656V1.59375C150.578 1.09375 153.383 0.757812 156.07 0.585938C158.773 0.414062 161.312 0.328125 163.688 0.328125ZM191.016 36H185.062V9.28125H191.016V36ZM188.062 0C189.219 0 190.133 0.195312 190.805 0.585938C191.477 0.960938 191.812 1.5625 191.812 2.39062V3.5625C191.812 4.3125 191.477 4.85156 190.805 5.17969C190.133 5.50781 189.219 5.67188 188.062 5.67188C186.953 5.67188 186.055 5.50781 185.367 5.17969C184.695 4.85156 184.359 4.3125 184.359 3.5625V2.39062C184.359 1.5625 184.695 0.960938 185.367 0.585938C186.055 0.195312 186.953 0 188.062 0ZM206.109 36H200.766V0.796875H206.109V36ZM238.359 9.09375C240.766 9.09375 242.938 9.29688 244.875 9.70312C246.812 10.0938 248.461 10.6875 249.82 11.4844C251.18 12.2812 252.227 13.2734 252.961 14.4609C253.695 15.6328 254.062 17 254.062 18.5625V36H247.922V19.9688C247.922 18.6719 247.641 17.6172 247.078 16.8047C246.516 15.9766 245.773 15.3281 244.852 14.8594C243.93 14.3906 242.883 14.0703 241.711 13.8984C240.539 13.7266 239.344 13.6406 238.125 13.6406V36H232.453V13.6406C231.438 13.6406 230.461 13.7266 229.523 13.8984C228.602 14.0547 227.727 14.2734 226.898 14.5547C226.07 14.8359 225.289 15.1562 224.555 15.5156C223.82 15.875 223.141 16.25 222.516 16.6406V36H216.375V16.6406C216.312 16.1406 216.164 15.7188 215.93 15.375C215.711 15.0312 215.469 14.75 215.203 14.5312C214.906 14.2656 214.578 14.0469 214.219 13.875L216.844 9.28125C217.422 9.48438 217.992 9.75 218.555 10.0781C219.039 10.3594 219.547 10.7266 220.078 11.1797C220.609 11.6328 221.078 12.1875 221.484 12.8438C222.75 12.0781 223.969 11.4531 225.141 10.9688C226.312 10.4688 227.547 10.0859 228.844 9.82031C230.141 9.53906 231.555 9.35156 233.086 9.25781C234.617 9.14844 236.375 9.09375 238.359 9.09375ZM278.297 9.28125C279.094 9.28125 280.055 9.32031 281.18 9.39844C282.305 9.47656 283.469 9.61719 284.672 9.82031C285.891 10.0078 287.094 10.2812 288.281 10.6406C289.469 10.9844 290.531 11.4297 291.469 11.9766C292.422 12.5234 293.188 13.1875 293.766 13.9688C294.359 14.7344 294.656 15.6406 294.656 16.6875V24.6094H267.797V30.6094C269.688 30.875 271.508 31.0625 273.258 31.1719C275.008 31.2656 276.688 31.3125 278.297 31.3125C280.75 31.3125 282.969 31.2188 284.953 31.0312C286.953 30.8438 288.68 30.6328 290.133 30.3984C291.805 30.1328 293.312 29.8281 294.656 29.4844V34.6875C291.688 35.1562 288.82 35.4922 286.055 35.6953C283.305 35.8984 280.719 36 278.297 36C275.859 36 273.648 35.9375 271.664 35.8125C269.68 35.6719 267.977 35.5156 266.555 35.3438C264.898 35.1562 263.406 34.9375 262.078 34.6875V16.6875C262.078 15.6406 262.336 14.7344 262.852 13.9688C263.367 13.1875 264.055 12.5234 264.914 11.9766C265.773 11.4297 266.758 10.9844 267.867 10.6406C268.992 10.2812 270.156 10.0078 271.359 9.82031C272.562 9.61719 273.758 9.47656 274.945 9.39844C276.148 9.32031 277.266 9.28125 278.297 9.28125ZM267.797 20.8594H288.844V18.1406C288.844 17.5 288.688 16.9531 288.375 16.5C288.062 16.0312 287.641 15.6406 287.109 15.3281C286.594 15.0156 285.984 14.7656 285.281 14.5781C284.594 14.375 283.875 14.2266 283.125 14.1328C282.375 14.0234 281.617 13.9531 280.852 13.9219C280.102 13.8906 279.391 13.875 278.719 13.875C278.016 13.875 277.258 13.8906 276.445 13.9219C275.648 13.9531 274.844 14.0234 274.031 14.1328C273.219 14.2422 272.438 14.3984 271.688 14.6016C270.938 14.7891 270.273 15.0469 269.695 15.375C269.117 15.6875 268.656 16.0781 268.312 16.5469C267.969 17 267.797 17.5469 267.797 18.1875V20.8594ZM316.688 9.28125C318.547 9.28125 320.359 9.39844 322.125 9.63281C323.891 9.85156 325.477 10.2344 326.883 10.7812C328.289 11.3125 329.445 12.0391 330.352 12.9609C331.258 13.8828 331.797 15.0312 331.969 16.4062L326.531 17.9062C326.531 17.0938 326.25 16.4219 325.688 15.8906C325.141 15.3438 324.406 14.9219 323.484 14.625C322.578 14.3125 321.531 14.0938 320.344 13.9688C319.156 13.8438 317.938 13.7812 316.688 13.7812C315.484 13.7812 314.289 13.8438 313.102 13.9688C311.93 14.0781 310.875 14.2891 309.938 14.6016C309.016 14.8984 308.266 15.3125 307.688 15.8438C307.125 16.375 306.844 17.0625 306.844 17.9062V20.7656H331.969V28.875C331.969 29.7969 331.766 30.6172 331.359 31.3359C330.953 32.0391 330.391 32.6562 329.672 33.1875C328.953 33.7031 328.102 34.1484 327.117 34.5234C326.148 34.8828 325.094 35.1719 323.953 35.3906C322.828 35.6094 321.641 35.7656 320.391 35.8594C319.156 35.9531 317.922 36 316.688 36C314.797 36 312.969 35.8906 311.203 35.6719C309.438 35.4375 307.852 35.0547 306.445 34.5234C305.039 33.9766 303.883 33.25 302.977 32.3438C302.086 31.4219 301.562 30.2656 301.406 28.875L306.844 27.375C306.844 28.2344 307.125 28.9297 307.688 29.4609C308.266 29.9922 309.016 30.4062 309.938 30.7031C310.875 31 311.93 31.2031 313.102 31.3125C314.289 31.4062 315.484 31.4531 316.688 31.4531C317.938 31.4531 319.156 31.3984 320.344 31.2891C321.531 31.1641 322.578 30.9531 323.484 30.6562C324.406 30.3438 325.141 29.9297 325.688 29.4141C326.25 28.8828 326.531 28.2031 326.531 27.375V24.5156H301.406V16.4062C301.406 15.4844 301.609 14.6719 302.016 13.9688C302.422 13.25 302.977 12.6328 303.68 12.1172C304.398 11.5859 305.242 11.1406 306.211 10.7812C307.18 10.4062 308.227 10.1094 309.352 9.89062C310.492 9.67188 311.68 9.51562 312.914 9.42188C314.164 9.32812 315.422 9.28125 316.688 9.28125Z" fill="white"/>
</svg>
